<?xml version="1.0" encoding="UTF-8" standalone="no"?>
<!DOCTYPE svg PUBLIC "-//W3C//DTD SVG 1.1//EN"
 "http://www.w3.org/Graphics/SVG/1.1/DTD/svg11.dtd">
<!-- Generated by graphviz version 2.40.1 (20161225.0304)
 -->
<!-- Title: models_diagram Pages: 1 -->
<svg width="1034pt" height="580pt"
 viewBox="0.00 0.00 1033.72 580.00" xmlns="http://www.w3.org/2000/svg" xmlns:xlink="http://www.w3.org/1999/xlink">
<g id="graph0" class="graph" transform="scale(1 1) rotate(0) translate(4 576)">
<title>models_diagram</title>
<polygon fill="transparent" stroke="transparent" points="-4,4 -4,-576 1029.7246,-576 1029.7246,4 -4,4"/>
<!-- ApplicationRecord -->
<g id="node1" class="node">
<title>ApplicationRecord</title>
<ellipse fill="none" stroke="#000000" cx="375.8623" cy="-479.5" rx="77.2916" ry="18"/>
<text text-anchor="middle" x="375.8623" y="-475.3" font-family="Times,serif" font-size="14.00" fill="#000000">ApplicationRecord</text>
</g>
<!-- Link -->
<g id="node2" class="node">
<title>Link</title>
<path fill="none" stroke="#000000" d="M504,-193.5C504,-193.5 727.7246,-193.5 727.7246,-193.5 733.7246,-193.5 739.7246,-199.5 739.7246,-205.5 739.7246,-205.5 739.7246,-337.5 739.7246,-337.5 739.7246,-343.5 733.7246,-349.5 727.7246,-349.5 727.7246,-349.5 504,-349.5 504,-349.5 498,-349.5 492,-343.5 492,-337.5 492,-337.5 492,-205.5 492,-205.5 492,-199.5 498,-193.5 504,-193.5"/>
<text text-anchor="middle" x="615.8623" y="-334.3" font-family="Times,serif" font-size="14.00" fill="#000000">Link</text>
<polyline fill="none" stroke="#000000" points="492,-327.5 739.7246,-327.5 "/>
<text text-anchor="start" x="500" y="-312.3" font-family="Times,serif" font-size="14.00" fill="#000000">team_id :uuid</text>
<text text-anchor="start" x="500" y="-298.3" font-family="Times,serif" font-size="14.00" fill="#000000">url :character varying</text>
<text text-anchor="start" x="500" y="-284.3" font-family="Times,serif" font-size="14.00" fill="#000000">slug :character varying</text>
<text text-anchor="start" x="500" y="-270.3" font-family="Times,serif" font-size="14.00" fill="#000000">reminder :timestamp without time zone</text>
<text text-anchor="start" x="500" y="-256.3" font-family="Times,serif" font-size="14.00" fill="#000000">created_at :timestamp without time zone</text>
<text text-anchor="start" x="500" y="-242.3" font-family="Times,serif" font-size="14.00" fill="#000000">updated_at :timestamp without time zone</text>
<text text-anchor="start" x="500" y="-228.3" font-family="Times,serif" font-size="14.00" fill="#000000">user_from_id :uuid</text>
<text text-anchor="start" x="500" y="-214.3" font-family="Times,serif" font-size="14.00" fill="#000000">metadata_id :uuid</text>
<text text-anchor="start" x="500" y="-200.3" font-family="Times,serif" font-size="14.00" fill="#000000">id :uuid</text>
</g>
<!-- SlackAccount -->
<g id="node4" class="node">
<title>SlackAccount</title>
<path fill="none" stroke="#000000" d="M544.0654,-21.5C544.0654,-21.5 687.6592,-21.5 687.6592,-21.5 693.6592,-21.5 699.6592,-27.5 699.6592,-33.5 699.6592,-33.5 699.6592,-109.5 699.6592,-109.5 699.6592,-115.5 693.6592,-121.5 687.6592,-121.5 687.6592,-121.5 544.0654,-121.5 544.0654,-121.5 538.0654,-121.5 532.0654,-115.5 532.0654,-109.5 532.0654,-109.5 532.0654,-33.5 532.0654,-33.5 532.0654,-27.5 538.0654,-21.5 544.0654,-21.5"/>
<text text-anchor="middle" x="615.8623" y="-106.3" font-family="Times,serif" font-size="14.00" fill="#000000">SlackAccount</text>
<polyline fill="none" stroke="#000000" points="532.0654,-99.5 699.6592,-99.5 "/>
<text text-anchor="start" x="540.0654" y="-84.3" font-family="Times,serif" font-size="14.00" fill="#000000">id :uuid</text>
<text text-anchor="start" x="540.0654" y="-70.3" font-family="Times,serif" font-size="14.00" fill="#000000">user_id :uuid</text>
<text text-anchor="start" x="540.0654" y="-56.3" font-family="Times,serif" font-size="14.00" fill="#000000">team_id :uuid</text>
<text text-anchor="start" x="540.0654" y="-42.3" font-family="Times,serif" font-size="14.00" fill="#000000">slack_id :character varying</text>
<text text-anchor="start" x="540.0654" y="-28.3" font-family="Times,serif" font-size="14.00" fill="#000000">email :character varying</text>
</g>
<!-- Link&#45;&gt;SlackAccount -->
<g id="edge2" class="edge">
<title>Link&#45;&gt;SlackAccount</title>
<path fill="none" stroke="#a2fd14" d="M685.2857,-184.3386C686.61,-181.2526 687.8095,-178.1367 688.8623,-175 694.1058,-159.3771 690.0227,-144.031 681.6244,-130.1387"/>
<polygon fill="#a2fd14" stroke="#a2fd14" points="685.231,-184.4546 676.8917,-191.5755 683.0959,-188.9759 680.9608,-193.4971 680.9608,-193.4971 680.9608,-193.4971 683.0959,-188.9759 685.0299,-195.4187 685.231,-184.4546 685.231,-184.4546"/>
<polygon fill="#a2fd14" stroke="#a2fd14" points="681.5022,-129.9587 679.6046,-119.1582 678.6923,-125.8229 675.8824,-121.6871 675.8824,-121.6871 675.8824,-121.6871 678.6923,-125.8229 672.1602,-124.216 681.5022,-129.9587 681.5022,-129.9587"/>
<text text-anchor="middle" x="727.4072" y="-163.8" font-family="Times,serif" font-size="14.00" fill="#000000">tagged_users</text>
</g>
<!-- Tag -->
<g id="node5" class="node">
<title>Tag</title>
<path fill="none" stroke="#000000" d="M278,-14.5C278,-14.5 501.7246,-14.5 501.7246,-14.5 507.7246,-14.5 513.7246,-20.5 513.7246,-26.5 513.7246,-26.5 513.7246,-116.5 513.7246,-116.5 513.7246,-122.5 507.7246,-128.5 501.7246,-128.5 501.7246,-128.5 278,-128.5 278,-128.5 272,-128.5 266,-122.5 266,-116.5 266,-116.5 266,-26.5 266,-26.5 266,-20.5 272,-14.5 278,-14.5"/>
<text text-anchor="middle" x="389.8623" y="-113.3" font-family="Times,serif" font-size="14.00" fill="#000000">Tag</text>
<polyline fill="none" stroke="#000000" points="266,-106.5 513.7246,-106.5 "/>
<text text-anchor="start" x="274" y="-91.3" font-family="Times,serif" font-size="14.00" fill="#000000">id :uuid</text>
<text text-anchor="start" x="274" y="-77.3" font-family="Times,serif" font-size="14.00" fill="#000000">name :character varying</text>
<text text-anchor="start" x="274" y="-63.3" font-family="Times,serif" font-size="14.00" fill="#000000">team_id :uuid</text>
<text text-anchor="start" x="274" y="-49.3" font-family="Times,serif" font-size="14.00" fill="#000000">created_at :timestamp without time zone</text>
<text text-anchor="start" x="274" y="-35.3" font-family="Times,serif" font-size="14.00" fill="#000000">updated_at :timestamp without time zone</text>
<text text-anchor="start" x="274" y="-21.3" font-family="Times,serif" font-size="14.00" fill="#000000">slack_user_id :uuid</text>
</g>
<!-- Link&#45;&gt;Tag -->
<g id="edge1" class="edge">
<title>Link&#45;&gt;Tag</title>
<path fill="none" stroke="#2321dd" d="M519.749,-186.4439C500.4357,-169.3526 480.4492,-151.6654 462.115,-135.4405"/>
<polygon fill="#2321dd" stroke="#2321dd" points="520.0251,-186.6883 524.5316,-196.6854 523.7695,-190.0019 527.5138,-193.3155 527.5138,-193.3155 527.5138,-193.3155 523.7695,-190.0019 530.4961,-189.9456 520.0251,-186.6883 520.0251,-186.6883"/>
<polygon fill="#2321dd" stroke="#2321dd" points="461.8542,-135.2097 457.3477,-125.2125 458.1098,-131.8961 454.3655,-128.5825 454.3655,-128.5825 454.3655,-128.5825 458.1098,-131.8961 451.3832,-131.9524 461.8542,-135.2097 461.8542,-135.2097"/>
</g>
<!-- Metadata -->
<g id="node3" class="node">
<title>Metadata</title>
<path fill="none" stroke="#000000" d="M483.3965,-387.5C483.3965,-387.5 748.3281,-387.5 748.3281,-387.5 754.3281,-387.5 760.3281,-393.5 760.3281,-399.5 760.3281,-399.5 760.3281,-559.5 760.3281,-559.5 760.3281,-565.5 754.3281,-571.5 748.3281,-571.5 748.3281,-571.5 483.3965,-571.5 483.3965,-571.5 477.3965,-571.5 471.3965,-565.5 471.3965,-559.5 471.3965,-559.5 471.3965,-399.5 471.3965,-399.5 471.3965,-393.5 477.3965,-387.5 483.3965,-387.5"/>
<text text-anchor="middle" x="615.8623" y="-556.3" font-family="Times,serif" font-size="14.00" fill="#000000">Metadata</text>
<polyline fill="none" stroke="#000000" points="471.3965,-549.5 760.3281,-549.5 "/>
<text text-anchor="start" x="479.3965" y="-534.3" font-family="Times,serif" font-size="14.00" fill="#000000">updated_at :timestamp without time zone</text>
<text text-anchor="start" x="479.3965" y="-520.3" font-family="Times,serif" font-size="14.00" fill="#000000">url :character varying</text>
<text text-anchor="start" x="479.3965" y="-506.3" font-family="Times,serif" font-size="14.00" fill="#000000">title :character varying</text>
<text text-anchor="start" x="479.3965" y="-492.3" font-family="Times,serif" font-size="14.00" fill="#000000">description :character varying</text>
<text text-anchor="start" x="479.3965" y="-478.3" font-family="Times,serif" font-size="14.00" fill="#000000">domain :character varying</text>
<text text-anchor="start" x="479.3965" y="-464.3" font-family="Times,serif" font-size="14.00" fill="#000000">image_file_name :character varying</text>
<text text-anchor="start" x="479.3965" y="-450.3" font-family="Times,serif" font-size="14.00" fill="#000000">image_content_type :character varying</text>
<text text-anchor="start" x="479.3965" y="-436.3" font-family="Times,serif" font-size="14.00" fill="#000000">image_file_size :integer</text>
<text text-anchor="start" x="479.3965" y="-422.3" font-family="Times,serif" font-size="14.00" fill="#000000">image_updated_at :timestamp without time zone</text>
<text text-anchor="start" x="479.3965" y="-408.3" font-family="Times,serif" font-size="14.00" fill="#000000">created_at :timestamp without time zone</text>
<text text-anchor="start" x="479.3965" y="-394.3" font-family="Times,serif" font-size="14.00" fill="#000000">id :uuid</text>
</g>
<!-- Metadata&#45;&gt;Link -->
<g id="edge3" class="edge">
<title>Metadata&#45;&gt;Link</title>
<path fill="none" stroke="#a5b982" d="M615.8623,-379.3588C615.8623,-372.7975 615.8623,-366.2158 615.8623,-359.7181"/>
<ellipse fill="none" stroke="#a5b982" cx="615.8624" cy="-383.3598" rx="4" ry="4"/>
<polygon fill="#a5b982" stroke="#a5b982" points="615.8624,-359.5919 620.3623,-349.5918 615.8624,-354.5919 615.8623,-349.5919 615.8623,-349.5919 615.8623,-349.5919 615.8624,-354.5919 611.3623,-349.5919 615.8624,-359.5919 615.8624,-359.5919"/>
</g>
<!-- SlackAccount&#45;&gt;Link -->
<g id="edge4" class="edge">
<title>SlackAccount&#45;&gt;Link</title>
<path fill="none" stroke="#549b0d" d="M601.6141,-129.9956C599.6372,-140.2691 597.9222,-150.9031 596.8623,-161 596.1078,-168.1871 595.9718,-175.6135 596.2906,-183.0588"/>
<ellipse fill="none" stroke="#549b0d" cx="602.4613" cy="-125.7727" rx="4" ry="4"/>
<polygon fill="#549b0d" stroke="#549b0d" points="596.3021,-183.2261 592.5028,-193.5127 596.6471,-188.2142 596.992,-193.2023 596.992,-193.2023 596.992,-193.2023 596.6471,-188.2142 601.4813,-192.8918 596.3021,-183.2261 596.3021,-183.2261"/>
</g>
<!-- SlackAccount&#45;&gt;Link -->
<g id="edge5" class="edge">
<title>SlackAccount&#45;&gt;Link</title>
<path fill="none" stroke="#391a18" d="M613.9149,-131.7413C613.6662,-141.5207 613.4518,-151.5407 613.3174,-161 613.2152,-168.1892 613.1974,-175.6411 613.2416,-183.1247"/>
<polygon fill="#391a18" stroke="#391a18" points="613.9168,-131.6671 618.6829,-121.7912 614.0506,-126.6689 614.1845,-121.6707 614.1845,-121.6707 614.1845,-121.6707 614.0506,-126.6689 609.6861,-121.5502 613.9168,-131.6671 613.9168,-131.6671"/>
<polygon fill="#391a18" stroke="#391a18" points="613.2434,-183.3281 608.8382,-193.3702 613.2907,-188.3279 613.338,-193.3277 613.338,-193.3277 613.338,-193.3277 613.2907,-188.3279 617.8378,-193.2851 613.2434,-183.3281 613.2434,-183.3281"/>
<text text-anchor="middle" x="648.6348" y="-163.8" font-family="Times,serif" font-size="14.00" fill="#000000">tagged_links</text>
</g>
<!-- Team -->
<g id="node6" class="node">
<title>Team</title>
<path fill="none" stroke="#000000" d="M12,-.5C12,-.5 235.7246,-.5 235.7246,-.5 241.7246,-.5 247.7246,-6.5 247.7246,-12.5 247.7246,-12.5 247.7246,-130.5 247.7246,-130.5 247.7246,-136.5 241.7246,-142.5 235.7246,-142.5 235.7246,-142.5 12,-142.5 12,-142.5 6,-142.5 0,-136.5 0,-130.5 0,-130.5 0,-12.5 0,-12.5 0,-6.5 6,-.5 12,-.5"/>
<text text-anchor="middle" x="123.8623" y="-127.3" font-family="Times,serif" font-size="14.00" fill="#000000">Team</text>
<polyline fill="none" stroke="#000000" points="0,-120.5 247.7246,-120.5 "/>
<text text-anchor="start" x="8" y="-105.3" font-family="Times,serif" font-size="14.00" fill="#000000">updated_at :timestamp without time zone</text>
<text text-anchor="start" x="8" y="-91.3" font-family="Times,serif" font-size="14.00" fill="#000000">team_id :character varying</text>
<text text-anchor="start" x="8" y="-77.3" font-family="Times,serif" font-size="14.00" fill="#000000">name :character varying</text>
<text text-anchor="start" x="8" y="-63.3" font-family="Times,serif" font-size="14.00" fill="#000000">active :boolean</text>
<text text-anchor="start" x="8" y="-49.3" font-family="Times,serif" font-size="14.00" fill="#000000">domain :character varying</text>
<text text-anchor="start" x="8" y="-35.3" font-family="Times,serif" font-size="14.00" fill="#000000">token :character varying</text>
<text text-anchor="start" x="8" y="-21.3" font-family="Times,serif" font-size="14.00" fill="#000000">created_at :timestamp without time zone</text>
<text text-anchor="start" x="8" y="-7.3" font-family="Times,serif" font-size="14.00" fill="#000000">id :uuid</text>
</g>
<!-- User -->
<g id="node7" class="node">
<title>User</title>
<path fill="none" stroke="#000000" d="M238,-207.5C238,-207.5 461.7246,-207.5 461.7246,-207.5 467.7246,-207.5 473.7246,-213.5 473.7246,-219.5 473.7246,-219.5 473.7246,-323.5 473.7246,-323.5 473.7246,-329.5 467.7246,-335.5 461.7246,-335.5 461.7246,-335.5 238,-335.5 238,-335.5 232,-335.5 226,-329.5 226,-323.5 226,-323.5 226,-219.5 226,-219.5 226,-213.5 232,-207.5 238,-207.5"/>
<text text-anchor="middle" x="349.8623" y="-320.3" font-family="Times,serif" font-size="14.00" fill="#000000">User</text>
<polyline fill="none" stroke="#000000" points="226,-313.5 473.7246,-313.5 "/>
<text text-anchor="start" x="234" y="-298.3" font-family="Times,serif" font-size="14.00" fill="#000000">slug :character varying</text>
<text text-anchor="start" x="234" y="-284.3" font-family="Times,serif" font-size="14.00" fill="#000000">first_name :character varying</text>
<text text-anchor="start" x="234" y="-270.3" font-family="Times,serif" font-size="14.00" fill="#000000">last_name :character varying</text>
<text text-anchor="start" x="234" y="-256.3" font-family="Times,serif" font-size="14.00" fill="#000000">id :uuid</text>
<text text-anchor="start" x="234" y="-242.3" font-family="Times,serif" font-size="14.00" fill="#000000">created_at :timestamp without time zone</text>
<text text-anchor="start" x="234" y="-228.3" font-family="Times,serif" font-size="14.00" fill="#000000">updated_at :timestamp without time zone</text>
<text text-anchor="start" x="234" y="-214.3" font-family="Times,serif" font-size="14.00" fill="#000000">active_team_id :uuid</text>
</g>
<!-- User&#45;&gt;SlackAccount -->
<g id="edge7" class="edge">
<title>User&#45;&gt;SlackAccount</title>
<path fill="none" stroke="#d92983" d="M443.2731,-202.5563C469.1187,-183.361 497.134,-162.4432 522.8623,-143 529.4022,-138.0577 536.1846,-132.9021 542.9715,-127.7223"/>
<ellipse fill="none" stroke="#d92983" cx="439.9635" cy="-205.0131" rx="4" ry="4"/>
<polygon fill="#d92983" stroke="#d92983" points="542.9816,-127.7146 553.6593,-125.2172 546.9541,-124.6783 550.9266,-121.642 550.9266,-121.642 550.9266,-121.642 546.9541,-124.6783 548.1939,-118.0667 542.9816,-127.7146 542.9816,-127.7146"/>
</g>
<!-- User&#45;&gt;Tag -->
<g id="edge6" class="edge">
<title>User&#45;&gt;Tag</title>
<path fill="none" stroke="#09883a" d="M364.3032,-199.2956C368.2501,-179.5609 372.5108,-158.2574 376.4007,-138.8078"/>
<ellipse fill="none" stroke="#09883a" cx="363.4681" cy="-203.4712" rx="4" ry="4"/>
<polygon fill="#09883a" stroke="#09883a" points="376.4363,-138.6298 382.8101,-129.7066 377.4169,-133.7269 378.3975,-128.824 378.3975,-128.824 378.3975,-128.824 377.4169,-133.7269 373.9849,-127.9414 376.4363,-138.6298 376.4363,-138.6298"/>
</g>
<!-- User&#45;&gt;Team -->
<g id="edge8" class="edge">
<title>User&#45;&gt;Team</title>
<path fill="none" stroke="#68e166" d="M269.6646,-200.5286C250.877,-183.9024 230.7649,-166.104 211.6648,-149.2013"/>
<polygon fill="#68e166" stroke="#68e166" points="269.9332,-200.7663 274.4397,-210.7634 273.6776,-204.0799 277.422,-207.3935 277.422,-207.3935 277.422,-207.3935 273.6776,-204.0799 280.4042,-204.0236 269.9332,-200.7663 269.9332,-200.7663"/>
<polygon fill="#68e166" stroke="#68e166" points="211.6062,-149.1495 207.0997,-139.1523 207.8618,-145.8359 204.1175,-142.5223 204.1175,-142.5223 204.1175,-142.5223 207.8618,-145.8359 201.1352,-145.8922 211.6062,-149.1495 211.6062,-149.1495"/>
</g>
<!-- UserTag -->
<g id="node8" class="node">
<title>UserTag</title>
<path fill="none" stroke="#000000" d="M790,-429.5C790,-429.5 1013.7246,-429.5 1013.7246,-429.5 1019.7246,-429.5 1025.7246,-435.5 1025.7246,-441.5 1025.7246,-441.5 1025.7246,-517.5 1025.7246,-517.5 1025.7246,-523.5 1019.7246,-529.5 1013.7246,-529.5 1013.7246,-529.5 790,-529.5 790,-529.5 784,-529.5 778,-523.5 778,-517.5 778,-517.5 778,-441.5 778,-441.5 778,-435.5 784,-429.5 790,-429.5"/>
<text text-anchor="middle" x="901.8623" y="-514.3" font-family="Times,serif" font-size="14.00" fill="#000000">UserTag</text>
<polyline fill="none" stroke="#000000" points="778,-507.5 1025.7246,-507.5 "/>
<text text-anchor="start" x="786" y="-492.3" font-family="Times,serif" font-size="14.00" fill="#000000">id :uuid</text>
<text text-anchor="start" x="786" y="-478.3" font-family="Times,serif" font-size="14.00" fill="#000000">user_id :uuid</text>
<text text-anchor="start" x="786" y="-464.3" font-family="Times,serif" font-size="14.00" fill="#000000">link_id :uuid</text>
<text text-anchor="start" x="786" y="-450.3" font-family="Times,serif" font-size="14.00" fill="#000000">created_at :timestamp without time zone</text>
<text text-anchor="start" x="786" y="-436.3" font-family="Times,serif" font-size="14.00" fill="#000000">updated_at :timestamp without time zone</text>
</g>
</g>
</svg>
