<?xml version="1.0" encoding="UTF-8" standalone="no"?>
<!DOCTYPE svg PUBLIC "-//W3C//DTD SVG 1.1//EN"
 "http://www.w3.org/Graphics/SVG/1.1/DTD/svg11.dtd">
<!-- Generated by graphviz version 2.40.1 (20161225.0304)
 -->
<!-- Title: models_diagram Pages: 1 -->
<svg width="445pt" height="422pt"
 viewBox="0.00 0.00 445.39 422.00" xmlns="http://www.w3.org/2000/svg" xmlns:xlink="http://www.w3.org/1999/xlink">
<g id="graph0" class="graph" transform="scale(1 1) rotate(0) translate(4 418)">
<title>models_diagram</title>
<polygon fill="transparent" stroke="transparent" points="-4,4 -4,-418 441.3858,-418 441.3858,4 -4,4"/>
<!-- ApplicationRecord -->
<g id="node1" class="node">
<title>ApplicationRecord</title>
<ellipse fill="none" stroke="#000000" cx="245" cy="-396" rx="77.2916" ry="18"/>
<text text-anchor="middle" x="245" y="-391.8" font-family="Times,serif" font-size="14.00" fill="#000000">ApplicationRecord</text>
</g>
<!-- Link -->
<g id="node2" class="node">
<title>Link</title>
<ellipse fill="none" stroke="#000000" cx="170" cy="-323" rx="27" ry="18"/>
<text text-anchor="middle" x="170" y="-318.8" font-family="Times,serif" font-size="14.00" fill="#000000">Link</text>
</g>
<!-- Metadata -->
<g id="node3" class="node">
<title>Metadata</title>
<ellipse fill="none" stroke="#000000" cx="123" cy="-237" rx="43.0128" ry="18"/>
<text text-anchor="middle" x="123" y="-232.8" font-family="Times,serif" font-size="14.00" fill="#000000">Metadata</text>
</g>
<!-- Link&#45;&gt;Metadata -->
<g id="edge5" class="edge">
<title>Link&#45;&gt;Metadata</title>
<path fill="none" stroke="#5e67f1" d="M144.0689,-316.9769C118.123,-310.3631 80.8849,-299.0682 72.4756,-287 64.5467,-275.6212 73.3162,-264.5971 85.6511,-255.8091"/>
<polygon fill="#5e67f1" stroke="#5e67f1" points="87.5999,-258.7173 94.1321,-250.3757 83.8237,-252.8231 87.5999,-258.7173"/>
<text text-anchor="middle" x="98.2622" y="-275.8" font-family="Times,serif" font-size="14.00" fill="#000000">metadata</text>
</g>
<!-- SlackAccount -->
<g id="node4" class="node">
<title>SlackAccount</title>
<ellipse fill="none" stroke="#000000" cx="258" cy="-237" rx="59.927" ry="18"/>
<text text-anchor="middle" x="258" y="-232.8" font-family="Times,serif" font-size="14.00" fill="#000000">SlackAccount</text>
</g>
<!-- Link&#45;&gt;SlackAccount -->
<g id="edge1" class="edge">
<title>Link&#45;&gt;SlackAccount</title>
<path fill="none" stroke="#254e2c" d="M197.1242,-322.0809C245.3874,-319.8132 343.0841,-312.1542 364,-287 380.7864,-266.812 353.7203,-254.2723 322.7441,-246.7997"/>
<polygon fill="#254e2c" stroke="#254e2c" points="323.1209,-243.2982 312.6001,-244.5483 321.6042,-250.1319 323.1209,-243.2982"/>
<text text-anchor="middle" x="397.769" y="-275.8" font-family="Times,serif" font-size="14.00" fill="#000000">user_from</text>
</g>
<!-- Link&#45;&gt;SlackAccount -->
<g id="edge4" class="edge">
<title>Link&#45;&gt;SlackAccount</title>
<path fill="none" stroke="#9ea686" d="M165.1,-294.8179C165.1529,-287.1928 166.6056,-279.3121 170.9102,-273 177.5405,-263.2775 187.3204,-256.1764 197.9565,-250.9913"/>
<polygon fill="#9ea686" stroke="#9ea686" points="165.1058,-294.9073 161.2688,-305.18 165.4325,-299.8966 165.7592,-304.8859 165.7592,-304.8859 165.7592,-304.8859 165.4325,-299.8966 170.2496,-304.5919 165.1058,-294.9073 165.1058,-294.9073"/>
<polygon fill="#9ea686" stroke="#9ea686" points="198.2767,-250.8539 209.2409,-251.0454 202.8714,-248.882 207.4662,-246.9101 207.4662,-246.9101 207.4662,-246.9101 202.8714,-248.882 205.6915,-242.7748 198.2767,-250.8539 198.2767,-250.8539"/>
<text text-anchor="middle" x="207.5449" y="-275.8" font-family="Times,serif" font-size="14.00" fill="#000000">tagged_users</text>
</g>
<!-- Tag -->
<g id="node5" class="node">
<title>Tag</title>
<ellipse fill="none" stroke="#000000" cx="154" cy="-91" rx="27" ry="18"/>
<text text-anchor="middle" x="154" y="-86.8" font-family="Times,serif" font-size="14.00" fill="#000000">Tag</text>
</g>
<!-- Link&#45;&gt;Tag -->
<g id="edge3" class="edge">
<title>Link&#45;&gt;Tag</title>
<path fill="none" stroke="#277ba4" d="M134.0297,-315.2263C107.3162,-308.6388 74.1565,-298.4548 66,-287 25.1292,-229.6022 92.4944,-150.1881 130.6125,-112.5043"/>
<polygon fill="#277ba4" stroke="#277ba4" points="134.1579,-315.2567 142.8457,-321.948 139.0223,-316.4134 143.8867,-317.5701 143.8867,-317.5701 143.8867,-317.5701 139.0223,-316.4134 144.9277,-313.1921 134.1579,-315.2567 134.1579,-315.2567"/>
<polygon fill="#277ba4" stroke="#277ba4" points="130.6197,-112.4973 140.935,-108.7764 134.2126,-109.0201 137.8055,-105.5428 137.8055,-105.5428 137.8055,-105.5428 134.2126,-109.0201 134.6759,-102.3092 130.6197,-112.4973 130.6197,-112.4973"/>
</g>
<!-- Team -->
<g id="node6" class="node">
<title>Team</title>
<ellipse fill="none" stroke="#000000" cx="154" cy="-18" rx="29.7411" ry="18"/>
<text text-anchor="middle" x="154" y="-13.8" font-family="Times,serif" font-size="14.00" fill="#000000">Team</text>
</g>
<!-- Link&#45;&gt;Team -->
<g id="edge2" class="edge">
<title>Link&#45;&gt;Team</title>
<path fill="none" stroke="#102375" d="M143.063,-321.4355C95.1276,-317.0406 0,-300.3397 0,-237 0,-237 0,-237 0,-91 0,-65.2805 71.0228,-40.827 116.6042,-27.7814"/>
<polygon fill="#102375" stroke="#102375" points="117.7808,-31.0867 126.4679,-25.0217 115.8946,-24.3456 117.7808,-31.0867"/>
</g>
<!-- Metadata&#45;&gt;Link -->
<g id="edge6" class="edge">
<title>Metadata&#45;&gt;Link</title>
<path fill="none" stroke="#a55b23" d="M136.7214,-262.1072C142.7309,-273.1033 149.7787,-285.9992 155.8375,-297.0857"/>
<ellipse fill="none" stroke="#a55b23" cx="134.6701" cy="-258.3538" rx="4" ry="4"/>
<polygon fill="#a55b23" stroke="#a55b23" points="155.9186,-297.2341 156.7655,-308.1672 158.3165,-301.6216 160.7143,-306.0092 160.7143,-306.0092 160.7143,-306.0092 158.3165,-301.6216 164.6631,-303.8511 155.9186,-297.2341 155.9186,-297.2341"/>
</g>
<!-- SlackAccount&#45;&gt;Link -->
<g id="edge7" class="edge">
<title>SlackAccount&#45;&gt;Link</title>
<path fill="none" stroke="#fe20a0" d="M254.928,-263.394C252.9003,-271.664 249.5452,-280.3562 244,-287 233.884,-299.12 218.7138,-307.4844 204.7373,-313.0771"/>
<ellipse fill="none" stroke="#fe20a0" cx="255.7562" cy="-259.2776" rx="4" ry="4"/>
<polygon fill="#fe20a0" stroke="#fe20a0" points="204.7203,-313.0832 193.783,-312.2921 200.0245,-314.8008 195.3287,-316.5183 195.3287,-316.5183 195.3287,-316.5183 200.0245,-314.8008 196.8745,-320.7445 204.7203,-313.0832 204.7203,-313.0832"/>
</g>
<!-- SlackAccount&#45;&gt;Link -->
<g id="edge10" class="edge">
<title>SlackAccount&#45;&gt;Link</title>
<path fill="none" stroke="#fb7ff3" d="M266.4885,-265.1596C267.1975,-272.7843 266.3201,-280.6705 262,-287 255.2198,-296.9339 228.257,-306.788 205.2601,-313.6683"/>
<polygon fill="#fb7ff3" stroke="#fb7ff3" points="266.4504,-264.943 269.1444,-254.3132 265.5816,-260.019 264.7128,-255.0951 264.7128,-255.0951 264.7128,-255.0951 265.5816,-260.019 260.2813,-255.877 266.4504,-264.943 266.4504,-264.943"/>
<polygon fill="#fb7ff3" stroke="#fb7ff3" points="204.9971,-313.7442 194.1412,-312.1946 200.1933,-315.1311 195.3895,-316.518 195.3895,-316.518 195.3895,-316.518 200.1933,-315.1311 196.6377,-320.8415 204.9971,-313.7442 204.9971,-313.7442"/>
<text text-anchor="middle" x="301.7725" y="-275.8" font-family="Times,serif" font-size="14.00" fill="#000000">tagged_links</text>
</g>
<!-- SlackAccount&#45;&gt;Team -->
<g id="edge9" class="edge">
<title>SlackAccount&#45;&gt;Team</title>
<path fill="none" stroke="#5eb341" d="M214.0127,-224.7041C191.2364,-216.2045 164.7615,-202.632 148,-182 116.3177,-143.0016 103.6426,-121.1509 118,-73 121.262,-62.0602 127.4713,-51.2722 133.8267,-42.1877"/>
<polygon fill="#5eb341" stroke="#5eb341" points="136.7182,-44.1646 139.8732,-34.0504 131.0995,-39.9896 136.7182,-44.1646"/>
</g>
<!-- User -->
<g id="node7" class="node">
<title>User</title>
<ellipse fill="none" stroke="#000000" cx="258" cy="-164" rx="27" ry="18"/>
<text text-anchor="middle" x="258" y="-159.8" font-family="Times,serif" font-size="14.00" fill="#000000">User</text>
</g>
<!-- SlackAccount&#45;&gt;User -->
<g id="edge8" class="edge">
<title>SlackAccount&#45;&gt;User</title>
<path fill="none" stroke="#8a82b6" d="M252.0843,-218.9551C251.2738,-210.7614 251.0539,-200.8841 251.4244,-191.7765"/>
<polygon fill="#8a82b6" stroke="#8a82b6" points="254.9308,-191.8035 252.1305,-181.5855 247.9475,-191.3196 254.9308,-191.8035"/>
</g>
<!-- Tag&#45;&gt;SlackAccount -->
<g id="edge11" class="edge">
<title>Tag&#45;&gt;SlackAccount</title>
<path fill="none" stroke="#ab380b" d="M151.2025,-108.9726C149.1287,-128.5398 148.7317,-159.977 162.9102,-182 173.5371,-198.5064 190.9923,-210.631 208.0664,-219.2288"/>
<polygon fill="#ab380b" stroke="#ab380b" points="206.928,-222.5611 217.467,-223.648 209.9061,-216.2262 206.928,-222.5611"/>
<text text-anchor="middle" x="192.5449" y="-159.8" font-family="Times,serif" font-size="14.00" fill="#000000">slack_user</text>
</g>
<!-- Tag&#45;&gt;Team -->
<g id="edge12" class="edge">
<title>Tag&#45;&gt;Team</title>
<path fill="none" stroke="#df1040" d="M154,-72.9551C154,-64.8828 154,-55.1764 154,-46.1817"/>
<polygon fill="#df1040" stroke="#df1040" points="157.5001,-46.0903 154,-36.0904 150.5001,-46.0904 157.5001,-46.0903"/>
</g>
<!-- User&#45;&gt;SlackAccount -->
<g id="edge15" class="edge">
<title>User&#45;&gt;SlackAccount</title>
<path fill="none" stroke="#90040c" d="M264.4771,-189.6388C264.7958,-195.8064 264.8354,-202.4293 264.5959,-208.71"/>
<ellipse fill="none" stroke="#90040c" cx="264.1704" cy="-185.5741" rx="4" ry="4"/>
<polygon fill="#90040c" stroke="#90040c" points="264.5782,-208.977 259.4256,-218.6569 264.247,-213.966 263.9157,-218.9551 263.9157,-218.9551 263.9157,-218.9551 264.247,-213.966 268.4058,-219.2532 264.5782,-208.977 264.5782,-208.977"/>
</g>
<!-- User&#45;&gt;Tag -->
<g id="edge13" class="edge">
<title>User&#45;&gt;Tag</title>
<path fill="none" stroke="#c0515b" d="M231.1975,-146.9708C222.1536,-141.0891 212.0584,-134.3738 203,-128 195.4808,-122.7092 187.4662,-116.7836 180.1435,-111.2515"/>
<ellipse fill="none" stroke="#c0515b" cx="234.8257" cy="-149.3155" rx="4" ry="4"/>
<polygon fill="#c0515b" stroke="#c0515b" points="179.8913,-111.0594 174.6632,-101.4199 175.9138,-108.0295 171.9363,-104.9996 171.9363,-104.9996 171.9363,-104.9996 175.9138,-108.0295 169.2095,-108.5794 179.8913,-111.0594 179.8913,-111.0594"/>
</g>
<!-- User&#45;&gt;Team -->
<g id="edge14" class="edge">
<title>User&#45;&gt;Team</title>
<path fill="none" stroke="#11e105" d="M246.272,-147.5357C228.0926,-122.0146 192.9924,-72.7394 171.7128,-42.866"/>
<polygon fill="#11e105" stroke="#11e105" points="174.4972,-40.7423 165.8447,-34.6281 168.7958,-44.8036 174.4972,-40.7423"/>
<text text-anchor="middle" x="252.814" y="-86.8" font-family="Times,serif" font-size="14.00" fill="#000000">active_team</text>
</g>
<!-- User&#45;&gt;Team -->
<g id="edge16" class="edge">
<title>User&#45;&gt;Team</title>
<path fill="none" stroke="#5c9404" d="M278.0227,-140.1916C291.673,-120.906 304.9582,-93.6446 291,-73 269.3675,-41.0048 225.7326,-27.6196 193.4938,-22.0214"/>
<polygon fill="#5c9404" stroke="#5c9404" points="277.8314,-140.446 268.225,-145.7345 274.8266,-144.4424 271.8218,-148.4388 271.8218,-148.4388 271.8218,-148.4388 274.8266,-144.4424 275.4186,-151.1432 277.8314,-140.446 277.8314,-140.446"/>
<polygon fill="#5c9404" stroke="#5c9404" points="193.3508,-21.9993 184.1604,-16.0171 188.4101,-21.2315 183.4694,-20.4637 183.4694,-20.4637 183.4694,-20.4637 188.4101,-21.2315 182.7784,-24.9104 193.3508,-21.9993 193.3508,-21.9993"/>
</g>
<!-- UserTag -->
<g id="node8" class="node">
<title>UserTag</title>
<ellipse fill="none" stroke="#000000" cx="380" cy="-396" rx="39.8726" ry="18"/>
<text text-anchor="middle" x="380" y="-391.8" font-family="Times,serif" font-size="14.00" fill="#000000">UserTag</text>
</g>
<!-- UserTag&#45;&gt;Link -->
<g id="edge17" class="edge">
<title>UserTag&#45;&gt;Link</title>
<path fill="none" stroke="#03a97f" d="M348.933,-384.4662C342.9887,-382.2938 336.8086,-380.0587 331,-378 287.2253,-362.485 236.4879,-345.2804 203.8542,-334.3146"/>
<polygon fill="#03a97f" stroke="#03a97f" points="204.9294,-330.9837 194.3354,-331.1205 202.7025,-337.62 204.9294,-330.9837"/>
</g>
<!-- UserTag&#45;&gt;User -->
<g id="edge18" class="edge">
<title>UserTag&#45;&gt;User</title>
<path fill="none" stroke="#89d237" d="M396.4927,-379.1436C418.0932,-354.9293 450.9938,-309.2286 431,-273 401.6058,-219.7378 334.0413,-188.94 292.5821,-174.3982"/>
<polygon fill="#89d237" stroke="#89d237" points="293.4895,-171.0105 282.8953,-171.1292 291.2512,-177.643 293.4895,-171.0105"/>
</g>
</g>
</svg>
